<?xml version="1.0" encoding="utf-8" ?><!-- created by svgstack.com | Attribution is required. --><svg xmlns="http://www.w3.org/2000/svg" xmlns:xlink="http://www.w3.org/1999/xlink" width="1024" height="1024"><defs><linearGradient id="gradient_0" gradientUnits="userSpaceOnUse" x1="259.23849" y1="107.42892" x2="245.34875" y2="261.21866"><stop offset="0" stop-color="#4979FD"/><stop offset="1" stop-color="#32ABFF"/></linearGradient></defs><path fill="url(#gradient_0)" transform="scale(2 2)" d="M107.252 120.456C110.006 120.04 113.236 120.427 116.056 120.438L385.16 120.459C408.666 120.456 421.794 117.873 439.679 137.531C437.245 139.46 434.508 141.148 431.963 142.937L346.622 203.362C327.05 217.459 307.296 231.437 287.405 245.072C280.656 249.698 274.158 254.875 267.211 259.172C252.034 268.561 241.74 257.063 229.89 248.55L117.129 168.958C102.605 158.763 88.2939 148.133 73.3752 138.525C81.7559 127.87 93.6713 121.413 107.252 120.456Z"/><defs><linearGradient id="gradient_1" gradientUnits="userSpaceOnUse" x1="259.82001" y1="151.31143" x2="250.78304" y2="395.42459"><stop offset="0" stop-color="#4383FF"/><stop offset="1" stop-color="#22D1FD"/></linearGradient></defs><path fill="url(#gradient_1)" transform="scale(2 2)" d="M447.748 157.857L448.033 158.356C447.441 164.75 447.741 171.334 447.747 177.756L447.757 339.338C447.778 355.557 448.132 365.942 435.662 378.573C427.432 386.908 418.117 390.513 406.537 390.591L112.072 390.603C90.063 390.599 71.0594 382.914 65.4496 358.674C63.9654 352.26 64.1968 345.838 64.2028 339.312L64.2108 264.375L64.2127 193.35C64.2121 181.535 63.9566 169.666 64.2108 157.857C68.675 160.447 72.8861 163.86 77.1211 166.829L230.727 274.561C254.335 290.901 261.659 288.319 285.836 271.244L431.525 168.753C436.819 165.102 442.078 160.867 447.748 157.857Z"/></svg> 